# xmcd
#
# Track frame offsets: 
#        150
#        10787
#        21925
#        32235
#        45275
#        58345
#        68187
#        78627
#        88254
#        98747
#        108542
#        119437
#        130600
#        141650
#        152777
#        165135
#        174877
#        185335
#        195940
#        207000
#        218427
#        228792
#
# Disc length: 3183 seconds
#
# Revision: 2
# Processed by: cddbd v1.5.2PL0 Copyright (c) Steve Scherf et al.
# Submitted via: ExactAudioCopy v0.95b2
#
DISCID=1d0c6d16
DTITLE=Various Artist - Chess New Orleans Disc 2
DYEAR=1995
DGENRE=R&B
TTITLE0=Clarence 'Frogman' Henry - Ain't Got No Home
TTITLE1=Bobby Charles - I Ain't Gonna Do It No More
TTITLE2=Paul Gayten - Nervous Boogie
TTITLE3=Clifton Chenier - My Soul
TTITLE4=Clifton Chenier - Bayou Drive
TTITLE5=Clarence 'Frogman' Henry - It Won't Be Long
TTITLE6=Eddie Bo - Hip Hip Hooray (aka Hep Hep Hooray)
TTITLE7=TV Slim - Flatfoot Sam
TTITLE8=Eddie Bo - Where's My Baby?
TTITLE9=Edgar Blanchard - Lawdy Mama
TTITLE10=Paul Gayten - Tickle Toe
TTITLE11=Clarence 'Frogman' Henry - I'm In Love
TTITLE12=Eddie Bo - Oh Oh
TTITLE13=August Dupont and Warren Myles - Loud Mouth Annie
TTITLE14=Rod Bernard - This Should Go On Forever
TTITLE15=Rod Bernard - Pardon Mr. Gordon
TTITLE16=Clarence 'Frogman' Henry - (I Don't Know Why) But I Do
TTITLE17=Clarence 'Frogman' Henry - Little Suzy
TTITLE18=Reggie Hall - The Joke
TTITLE19=Reggie Hall - You Can Think What You Want
TTITLE20=Clarence 'Frogman' Henry - The Glory of Love
TTITLE21=Earl King - Feeling My Way Around
EXTD=
EXTT0=
EXTT1=
EXTT2=
EXTT3=
EXTT4=
EXTT5=
EXTT6=
EXTT7=
EXTT8=
EXTT9=
EXTT10=
EXTT11=
EXTT12=
EXTT13=
EXTT14=
EXTT15=
EXTT16=
EXTT17=
EXTT18=
EXTT19=
EXTT20=
EXTT21=
PLAYORDER=
